
<svg xmlns="http://www.w3.org/2000/svg" xmlns:xlink="http://www.w3.org/1999/xlink" viewBox="0 0 30 32" width="30" height="32" fill="none">
  <svg xmlns="http://www.w3.org/2000/svg" viewBox="0 0 640 512" width="30" height="30" fill="#030303" x="0" y="1" opacity="100%">
    <path d="M0 256v128c0 17.7 14.3 32 32 32h32V224H32c-17.7 0-32 14.3-32 32zM464 96H352V32c0-17.7-14.3-32-32-32s-32 14.3-32 32v64H176c-44.2 0-80 35.8-80 80v272c0 35.3 28.7 64 64 64h320c35.3 0 64-28.7 64-64V176c0-44.2-35.8-80-80-80zM256 416h-64v-32h64v32zm-32-120c-22.1 0-40-17.9-40-40s17.9-40 40-40 40 17.9 40 40-17.9 40-40 40zm128 120h-64v-32h64v32zm96 0h-64v-32h64v32zm-32-120c-22.1 0-40-17.9-40-40s17.9-40 40-40 40 17.9 40 40-17.9 40-40 40zm192-72h-32v192h32c17.7 0 32-14.3 32-32V256c0-17.7-14.3-32-32-32z"></path>
  </svg>
  <defs>
    <filter id="filter_dshadow_0_0_0_00000014" color-interpolation-filters="sRGB" filterUnits="userSpaceOnUse">
      <feFlood flood-opacity="0" result="bg-fix"></feFlood>
      <feColorMatrix in="SourceAlpha" type="matrix" values="0 0 0 0 0 0 0 0 0 0 0 0 0 0 0 0 0 0 127 0" result="alpha"></feColorMatrix>
      <feOffset dx="0" dy="0"></feOffset>
      <feGaussianBlur stdDeviation="0"></feGaussianBlur>
      <feComposite in2="alpha" operator="out"></feComposite>
      <feColorMatrix type="matrix" values="0 0 0 0 0 0 0 0 0 0 0 0 0 0 0 0 0 0 0.08 0"></feColorMatrix>
      <feBlend mode="normal" in2="bg-fix" result="bg-fix-filter_dshadow_0_0_0_00000014"></feBlend>
      <feBlend in="SourceGraphic" in2="bg-fix-filter_dshadow_0_0_0_00000014" result="shape"></feBlend>
    </filter>
  </defs>
</svg>